<svg xmlns="http://www.w3.org/2000/svg" viewBox="0 0 512 512">
  <defs>
    <linearGradient id="bg" x1="0" y1="0" x2="1" y2="1">
      <stop offset="0" stop-color="#2563eb"/>
      <stop offset="1" stop-color="#1d4ed8"/>
    </linearGradient>
  </defs>
  <rect x="0" y="0" width="512" height="512" fill="url(#bg)"/>
  <g transform="translate(256 256) scale(0.72) translate(-256 -256)">
    <path d="M256 78 C 256 78 118 244 118 330 a 138 138 0 0 0 276 0 C 394 244 256 78 256 78 Z" fill="#ffffff"/>
    <path d="M256 408 c -8 -6 -74 -52 -74 -100 a 42 42 0 0 1 74 -27 a 42 42 0 0 1 74 27 c 0 48 -66 94 -74 100 Z" fill="#059669"/>
    <ellipse cx="196" cy="240" rx="20" ry="34" fill="#dbeafe" opacity="0.9" transform="rotate(24 196 240)"/>
  </g>
</svg>
